<svg width="258" height="273" viewBox="0 0 258 273" fill="none" xmlns="http://www.w3.org/2000/svg">
<g id="Loading component">
<g id="background-frame">
<g id="background">
<g id="loading-back">
<path d="M54.7033 128.564C52.4234 136.338 52.8015 142.225 55.1285 149.889C56.1652 153.304 56.8393 156.825 56.9992 160.389C57.332 167.811 58.2451 172.865 60.8505 180C70.7574 199.007 77.5551 209.292 88.9976 212.441C94.6379 213.993 100.462 215.177 105.642 217.895C112.018 221.241 117.07 223.185 122.92 225.068C128.098 226.734 133.634 226.846 138.975 225.817C146.824 224.305 153.302 223.436 160.114 222.958C167.07 222.469 173.802 220.148 179.163 215.689C182.392 213.004 185.555 210.428 189.8 207.426C193.091 205.1 196.046 202.31 198.373 199.02L203.799 191.349C207.42 186.229 209.296 180.138 210.096 173.918C211.113 166.003 213.12 158.669 216.299 148.775C217.631 144.629 218.158 140.261 217.777 135.923C217.106 128.267 216.493 121.791 214.851 107.5C213.058 96.1009 211.915 89.4087 210.471 83.8805C209.794 81.2845 208.641 78.839 207.177 76.5901C201.018 67.124 196.241 61.6533 188.776 56.403C185.91 54.3876 182.593 53.1431 179.216 52.2095C169.422 49.5014 162.481 46.0347 153.472 40.729C144.836 35.6434 134.406 34.7471 125.367 39.0768C121.518 40.9204 117.828 42.5431 112.464 44.0763C108.784 45.1279 105.208 46.5712 102.011 48.6739C88.1918 57.7631 79.399 63.8838 71.5395 72.5051C70.0533 74.1354 68.814 75.9774 67.7906 77.9317C60.6455 91.5761 57.4376 101.067 56.917 116.064C56.7698 120.306 55.8981 124.49 54.7033 128.564Z" fill="url(#paint0_linear_106_623)"/>
<path d="M54.7033 128.564C52.4234 136.338 52.8015 142.225 55.1285 149.889C56.1652 153.304 56.8393 156.825 56.9992 160.389C57.332 167.811 58.2451 172.865 60.8505 180C70.7574 199.007 77.5551 209.292 88.9976 212.441C94.6379 213.993 100.462 215.177 105.642 217.895C112.018 221.241 117.07 223.185 122.92 225.068C128.098 226.734 133.634 226.846 138.975 225.817C146.824 224.305 153.302 223.436 160.114 222.958C167.07 222.469 173.802 220.148 179.163 215.689C182.392 213.004 185.555 210.428 189.8 207.426C193.091 205.1 196.046 202.31 198.373 199.02L203.799 191.349C207.42 186.229 209.296 180.138 210.096 173.918C211.113 166.003 213.12 158.669 216.299 148.775C217.631 144.629 218.158 140.261 217.777 135.923C217.106 128.267 216.493 121.791 214.851 107.5C213.058 96.1009 211.915 89.4087 210.471 83.8805C209.794 81.2845 208.641 78.839 207.177 76.5901C201.018 67.124 196.241 61.6533 188.776 56.403C185.91 54.3876 182.593 53.1431 179.216 52.2095C169.422 49.5014 162.481 46.0347 153.472 40.729C144.836 35.6434 134.406 34.7471 125.367 39.0768C121.518 40.9204 117.828 42.5431 112.464 44.0763C108.784 45.1279 105.208 46.5712 102.011 48.6739C88.1918 57.7631 79.399 63.8838 71.5395 72.5051C70.0533 74.1354 68.814 75.9774 67.7906 77.9317C60.6455 91.5761 57.4376 101.067 56.917 116.064C56.7698 120.306 55.8981 124.49 54.7033 128.564Z" fill="url(#paint1_radial_106_623)"/>
<path d="M54.7033 128.564C52.4234 136.338 52.8015 142.225 55.1285 149.889C56.1652 153.304 56.8393 156.825 56.9992 160.389C57.332 167.811 58.2451 172.865 60.8505 180C70.7574 199.007 77.5551 209.292 88.9976 212.441C94.6379 213.993 100.462 215.177 105.642 217.895C112.018 221.241 117.07 223.185 122.92 225.068C128.098 226.734 133.634 226.846 138.975 225.817C146.824 224.305 153.302 223.436 160.114 222.958C167.07 222.469 173.802 220.148 179.163 215.689C182.392 213.004 185.555 210.428 189.8 207.426C193.091 205.1 196.046 202.31 198.373 199.02L203.799 191.349C207.42 186.229 209.296 180.138 210.096 173.918C211.113 166.003 213.12 158.669 216.299 148.775C217.631 144.629 218.158 140.261 217.777 135.923C217.106 128.267 216.493 121.791 214.851 107.5C213.058 96.1009 211.915 89.4087 210.471 83.8805C209.794 81.2845 208.641 78.839 207.177 76.5901C201.018 67.124 196.241 61.6533 188.776 56.403C185.91 54.3876 182.593 53.1431 179.216 52.2095C169.422 49.5014 162.481 46.0347 153.472 40.729C144.836 35.6434 134.406 34.7471 125.367 39.0768C121.518 40.9204 117.828 42.5431 112.464 44.0763C108.784 45.1279 105.208 46.5712 102.011 48.6739C88.1918 57.7631 79.399 63.8838 71.5395 72.5051C70.0533 74.1354 68.814 75.9774 67.7906 77.9317C60.6455 91.5761 57.4376 101.067 56.917 116.064C56.7698 120.306 55.8981 124.49 54.7033 128.564Z" stroke="#97D257"/>
</g>
<g id="Vector 6" filter="url(#filter0_f_106_623)">
<path d="M63.3505 93C63.3505 105 50.3505 133 62.3505 171L66.8505 166.5C64.9834 162.636 57.9157 152.124 57.8505 140.5C66.8505 113.5 65.1536 102.316 63.3505 93Z" fill="#B0D649"/>
</g>
<g id="Vector 7" filter="url(#filter1_f_106_623)">
<path d="M127.35 43.5C90.9025 55.0607 76.5872 65.5288 63.3505 96C63.3505 96 52.8505 110 74.8505 84.5C96.8505 59 115.671 48.6915 132.35 48.5C147.103 49.9238 154.725 52.25 167.85 57.5C179.423 62.8785 184.376 66.8732 190.851 75.5L199.351 105L202.351 122.5L203.351 142.5C203.351 142.5 205.351 129 205.351 122.5V107.5C207.597 113.049 207.877 117.404 208.793 123.731C208.956 124.859 210.426 124.809 210.534 123.674C212.146 106.735 211.068 96.8884 206.351 82.5C206.351 82.5 197.35 65.5 181.85 57.5C166.35 49.4999 158.35 48.5 158.35 48.5C146.796 40.0378 140.15 37.2688 127.35 43.5Z" fill="#B4DB4E"/>
</g>
<g id="Vector 4" filter="url(#filter2_df_106_623)">
<path d="M81.3746 158.048C82.2898 178.488 84.4617 187.419 93.3505 195C94.5116 192.153 95.5173 191.022 100.35 193C115.448 205.619 125.789 210.089 140.525 208.184C145.464 207.545 146.494 201.262 142.35 198.5C135.677 193.909 133.224 191.463 132.85 187.5L132.367 186.919C131.076 185.371 132.645 183.057 134.586 183.601C143.794 186.183 149.807 186.314 157.85 183.5C153.308 183.071 150.068 183.384 147.762 181.92C146.397 181.052 147.546 179.364 149.151 179.563C161.668 181.114 169.313 178.854 177.095 174.294C183.083 170.785 188.331 165.726 190.588 159.164C191.835 155.539 192.682 151.292 193.354 145.446C193.731 142.162 193.718 138.84 193.38 135.552C192.418 126.186 191.248 119.611 188.35 109L181.85 93.5C177.453 83.6308 173.248 79.6643 160.85 77L144.35 71L136.116 67.4196C133.942 66.4747 131.703 65.688 129.375 65.2444C125.747 64.5529 120.015 63.7436 115.85 64.5C110.812 65.4151 103.917 69.3757 102.962 69.9344C102.885 69.9794 102.815 70.0278 102.746 70.0833L86.985 82.5991C86.6102 82.8966 86.8207 83.5 87.2992 83.5C87.7229 83.5 87.9584 83.9901 87.6937 84.3209L80.3505 93.5L76.2499 99.8085C74.6528 102.266 72.7988 104.546 71.0525 106.9C67.7486 111.352 65.9972 115.687 65.6704 120.427C65.2089 127.119 66.2277 133.925 65.0277 140.525C64.2553 144.773 64.5662 149.147 65.9315 153.243L66.4337 154.75C66.5344 155.052 66.9744 155.008 67.0139 154.692L68.1032 145.978C68.1677 145.462 68.8793 145.375 69.066 145.86L75.469 162.508C75.5776 162.791 75.9888 162.753 76.044 162.455L77.646 153.804C77.7527 153.228 78.593 153.274 78.6363 153.858L79.3505 163.5L81.1791 158.014C81.2142 157.909 81.3696 157.937 81.3746 158.048Z" fill="url(#paint2_radial_106_623)"/>
</g>
<g id="Vector 8" filter="url(#filter3_f_106_623)">
<path d="M68.8505 84.5C73.4423 83.6528 75.4962 83.4479 78.3505 83.5C73.2643 86.8155 70.1056 89.6214 64.3505 95C65.7429 90.4437 66.043 88.3981 68.8505 84.5Z" fill="#7CBF4E"/>
</g>
<g id="Vector 9" filter="url(#filter4_f_106_623)">
<path d="M77.3505 72.5L73.3505 77.5C80.5043 76.2069 83.1982 76.5497 86.3505 78.5L104.35 63.5C94.4881 67.403 89.0146 69.623 77.3505 72.5Z" fill="#6DB83E"/>
</g>
<g id="Vector 14" filter="url(#filter5_f_106_623)">
<path d="M161.85 209.5C157.778 213.985 154.657 216.094 148.35 219.5C156.108 218.38 160.538 217.862 168.85 217.5C185.77 208.733 193.38 203.371 199.35 192C195.597 193.678 192.615 194.142 187.35 195C178.04 200.547 173.375 202.186 165.85 203L161.85 209.5Z" fill="#82C342"/>
</g>
<g id="Vector 10" filter="url(#filter6_f_106_623)">
<path d="M126.85 47L104.35 55.5C113.716 54.4064 122.132 51.4045 130.35 53L126.85 47Z" fill="#66AE41"/>
</g>
<g id="Vector 11" filter="url(#filter7_f_106_623)">
<path d="M214.35 144.5V134.5C210.699 147.447 203.85 160 199.85 165C195.85 170 198.85 176 198.85 176C189.007 187.88 182.782 193.915 170.35 203.5C182.115 197.432 188.283 193.029 198.35 183C198.35 183 203.85 184.5 204.35 183C204.85 181.5 208.039 159.223 214.35 144.5Z" fill="#C1E14D"/>
</g>
<g id="Vector 12" filter="url(#filter8_f_106_623)">
<path d="M178.35 212.5C186.686 206.879 191.594 203.876 196.35 196C193.378 194.778 191.74 195.434 188.85 198C188.162 199.729 188.331 200.564 188.85 202C176.401 202.066 170.789 203.76 163.85 210.5C169.215 212.822 172.376 213.332 178.35 212.5Z" fill="#A7D447"/>
</g>
<g id="Vector 13" filter="url(#filter9_f_106_623)">
<path d="M211.35 130.5L212.85 114L213.85 127L211.35 130.5Z" fill="#B9DA48"/>
</g>
<g id="Vector 5">
<path d="M97.3505 210L107.35 199C122.147 208.09 131.444 212.204 142.85 199L160.85 211C138.919 228.277 124.25 223.342 97.3505 210Z" fill="url(#paint3_linear_106_623)" fill-opacity="0.4"/>
<path d="M97.3505 210L107.35 199C122.147 208.09 131.444 212.204 142.85 199L160.85 211C138.919 228.277 124.25 223.342 97.3505 210Z" fill="url(#paint4_linear_106_623)" fill-opacity="0.1"/>
</g>
<path id="Vector 1" d="M104.407 202.096C105.679 203.779 106.758 205.533 107.98 207.827C108.358 208.534 107.776 209.366 106.98 209.266L102.113 208.658C101.281 208.554 100.435 208.636 99.6219 208.843C88.7895 211.593 82.626 205.682 72.3505 184C68.2022 177.281 67.8951 179.216 68.3505 185.5C68.3505 185.5 62.8505 173.772 62.8505 169.5C62.8505 166.5 63.3505 166 65.8505 166C69.0059 166 76.5176 175.024 79.5489 178.834C80.4251 179.935 81.1172 181.162 81.6519 182.464C88.496 199.13 92.7916 206.712 97.6593 202.373C99.6708 200.58 102.781 199.947 104.407 202.096Z" fill="#C0DE58"/>
<path id="Vector 3" d="M121.35 210.5C122.002 211.549 122.525 212.277 122.35 213.5C121.964 216.206 117.422 215.284 115.35 213.5C113.521 211.924 112.488 209.495 113.85 207.5C115.63 204.895 119.686 207.82 121.35 210.5Z" fill="#A5D749"/>
<g id="Vector 2" filter="url(#filter10_f_106_623)">
<path d="M128.85 209C127.901 202.949 132.393 200.271 135.85 202C142.431 205.29 148.269 207.515 155.459 209.187C156.134 209.344 156.46 210.121 156.05 210.681C153.817 213.726 150.969 215.595 144.85 218.5C142.232 218.307 140.789 217.951 138.35 216C136.005 221.227 131.35 221.5 128.85 209Z" fill="#95D346"/>
</g>
<circle id="Ellipse 2" cx="59.8505" cy="132.5" r="2.5" fill="white" fill-opacity="0.6"/>
<circle id="Ellipse 17" cx="76.3505" cy="111" r="2" fill="white" fill-opacity="0.6"/>
<circle id="Ellipse 18" cx="65.3505" cy="101" r="2" fill="white" fill-opacity="0.6"/>
<ellipse id="Ellipse 22" cx="79.8505" cy="99" rx="1.5" ry="2" fill="white" fill-opacity="0.6"/>
<ellipse id="Ellipse 23" cx="80.3505" cy="93.5" rx="1" ry="1.5" fill="white" fill-opacity="0.6"/>
<ellipse id="Ellipse 24" cx="81.3505" cy="88.5" rx="1" ry="1.5" transform="rotate(-15.4788 81.3505 88.5)" fill="white" fill-opacity="0.6"/>
<ellipse id="Ellipse 25" cx="75.3575" cy="83.6031" rx="2.0286" ry="3.07653" transform="rotate(-21.2848 75.3575 83.6031)" fill="white" fill-opacity="0.6"/>
<ellipse id="Ellipse 26" cx="78.6077" cy="81.1032" rx="1.34409" ry="1.82236" transform="rotate(-58.1629 78.6077 81.1032)" fill="white" fill-opacity="0.6"/>
<ellipse id="Ellipse 27" cx="83.8505" cy="75.8818" rx="1.1206" ry="1.49823" transform="rotate(-16.5015 83.8505 75.8818)" fill="white" fill-opacity="0.6"/>
<ellipse id="Ellipse 29" cx="104.869" cy="67.9747" rx="2.41634" ry="3.48618" transform="rotate(-14.2874 104.869 67.9747)" fill="white" fill-opacity="0.6"/>
<ellipse id="Ellipse 33" cx="121.802" cy="52.1105" rx="1.26775" ry="2.8482" transform="rotate(27.8548 121.802 52.1105)" fill="white" fill-opacity="0.6"/>
<ellipse id="Ellipse 34" cx="128.579" cy="45.1811" rx="1.43202" ry="1.56596" transform="rotate(27.8548 128.579 45.1811)" fill="white" fill-opacity="0.6"/>
<ellipse id="Ellipse 35" cx="140.892" cy="50.5536" rx="1.87046" ry="1.89978" transform="rotate(27.8548 140.892 50.5536)" fill="white" fill-opacity="0.6"/>
<ellipse id="Ellipse 37" cx="150.473" cy="45.7602" rx="1.87046" ry="1.00245" transform="rotate(27.8548 150.473 45.7602)" fill="white" fill-opacity="0.6"/>
<ellipse id="Ellipse 38" cx="155.714" cy="48.3039" rx="1.87046" ry="0.486328" transform="rotate(27.8548 155.714 48.3039)" fill="white" fill-opacity="0.6"/>
<ellipse id="Ellipse 39" cx="169.53" cy="53.8694" rx="1.87046" ry="1.12591" transform="rotate(27.8548 169.53 53.8694)" fill="white" fill-opacity="0.6"/>
<ellipse id="Ellipse 40" cx="178.249" cy="56.3168" rx="1.02143" ry="1.01599" transform="rotate(27.8548 178.249 56.3168)" fill="white" fill-opacity="0.6"/>
<ellipse id="Ellipse 41" cx="185.722" cy="62.9284" rx="1.50849" ry="1.40817" transform="rotate(27.8548 185.722 62.9284)" fill="white" fill-opacity="0.6"/>
<ellipse id="Ellipse 42" cx="189.657" cy="68.7187" rx="1.21172" ry="0.808904" transform="rotate(27.8548 189.657 68.7187)" fill="white" fill-opacity="0.6"/>
<ellipse id="Ellipse 43" cx="198.96" cy="76.1139" rx="2.47863" ry="2.18551" transform="rotate(77.7441 198.96 76.1139)" fill="white" fill-opacity="0.6"/>
<ellipse id="Ellipse 44" cx="208.35" cy="109.464" rx="1.92561" ry="1.62834" transform="rotate(77.7441 208.35 109.464)" fill="white" fill-opacity="0.6"/>
<ellipse id="Ellipse 45" cx="208.942" cy="116.5" rx="1.34031" ry="0.896172" transform="rotate(90.3868 208.942 116.5)" fill="white" fill-opacity="0.6"/>
<ellipse id="Ellipse 46" cx="207.36" cy="121.5" rx="2.4865" ry="2.00779" transform="rotate(90.3868 207.36 121.5)" fill="white" fill-opacity="0.6"/>
<ellipse id="Ellipse 47" cx="206.047" cy="135.799" rx="2.18509" ry="1.68132" transform="rotate(90.3868 206.047 135.799)" fill="white" fill-opacity="0.6"/>
<ellipse id="Ellipse 48" cx="213.449" cy="137.602" rx="2.78868" ry="0.920702" transform="rotate(90.3868 213.449 137.602)" fill="white" fill-opacity="0.6"/>
<ellipse id="Ellipse 49" cx="196.298" cy="184.278" rx="1.76244" ry="1.93213" transform="rotate(90.3868 196.298 184.278)" fill="white" fill-opacity="0.6"/>
<ellipse id="Ellipse 50" cx="189.775" cy="194.639" rx="1.93451" ry="2.23108" transform="rotate(165.722 189.775 194.639)" fill="white" fill-opacity="0.6"/>
<ellipse id="Ellipse 51" cx="177.563" cy="202.207" rx="1.31145" ry="1.48643" transform="rotate(165.722 177.563 202.207)" fill="white" fill-opacity="0.6"/>
<ellipse id="Ellipse 52" cx="166.309" cy="206.981" rx="1.31145" ry="1.48643" transform="rotate(-140.302 166.309 206.981)" fill="white" fill-opacity="0.6"/>
<ellipse id="Ellipse 53" cx="164.309" cy="208.981" rx="1.31145" ry="1.48643" transform="rotate(-140.302 164.309 208.981)" fill="white" fill-opacity="0.6"/>
<ellipse id="Ellipse 54" cx="164.911" cy="213.701" rx="1.31145" ry="1.48643" transform="rotate(169.499 164.911 213.701)" fill="white" fill-opacity="0.6"/>
<ellipse id="Ellipse 55" cx="152.831" cy="212.641" rx="1.64557" ry="2.096" transform="rotate(-149.554 152.831 212.641)" fill="white" fill-opacity="0.6"/>
<ellipse id="Ellipse 56" cx="142.608" cy="214.826" rx="1.42991" ry="1.68381" transform="rotate(152.413 142.608 214.826)" fill="white" fill-opacity="0.6"/>
<ellipse id="Ellipse 57" cx="143.886" cy="211.093" rx="1.4141" ry="3.44371" transform="rotate(121.723 143.886 211.093)" fill="white" fill-opacity="0.6"/>
<ellipse id="Ellipse 58" cx="131.023" cy="208.014" rx="1.4141" ry="3.44371" transform="rotate(121.723 131.023 208.014)" fill="white" fill-opacity="0.6"/>
<ellipse id="Ellipse 59" cx="131.061" cy="203.396" rx="1.4141" ry="3.44371" transform="rotate(72.2592 131.061 203.396)" fill="white" fill-opacity="0.6"/>
<ellipse id="Ellipse 60" cx="140.43" cy="205.314" rx="1.4141" ry="3.12757" transform="rotate(39.4523 140.43 205.314)" fill="white" fill-opacity="0.6"/>
<ellipse id="Ellipse 61" cx="135.206" cy="206.876" rx="0.826189" ry="0.775854" transform="rotate(39.4523 135.206 206.876)" fill="white" fill-opacity="0.6"/>
<ellipse id="Ellipse 62" cx="122.85" cy="215.099" rx="1.86742" ry="1.66509" transform="rotate(39.4523 122.85 215.099)" fill="white" fill-opacity="0.6"/>
<ellipse id="Ellipse 64" cx="116.792" cy="204.972" rx="2.22997" ry="2.01428" transform="rotate(39.4523 116.792 204.972)" fill="white" fill-opacity="0.6"/>
<ellipse id="Ellipse 86" cx="145.303" cy="193.558" rx="6.89349" ry="1.00053" transform="rotate(4.66737 145.303 193.558)" fill="white" fill-opacity="0.6"/>
<ellipse id="Ellipse 87" cx="165.276" cy="191.603" rx="3.56769" ry="0.872209" transform="rotate(4.66737 165.276 191.603)" fill="white" fill-opacity="0.6"/>
<ellipse id="Ellipse 88" cx="162.038" cy="193.838" rx="1.52134" ry="1.29172" transform="rotate(72.5807 162.038 193.838)" fill="white" fill-opacity="0.6"/>
<ellipse id="Ellipse 65" cx="113.951" cy="207.661" rx="1.22027" ry="1.16469" transform="rotate(39.4523 113.951 207.661)" fill="white" fill-opacity="0.6"/>
<ellipse id="Ellipse 66" cx="111.85" cy="197.434" rx="1.99436" ry="1.51085" transform="rotate(39.4523 111.85 197.434)" fill="white" fill-opacity="0.6"/>
<ellipse id="Ellipse 67" cx="105.35" cy="200.267" rx="1.71415" ry="1.06449" transform="rotate(39.4523 105.35 200.267)" fill="white" fill-opacity="0.6"/>
<ellipse id="Ellipse 68" cx="101.892" cy="200.519" rx="2.43808" ry="1.39413" transform="rotate(86.4825 101.892 200.519)" fill="white" fill-opacity="0.6"/>
<ellipse id="Ellipse 69" cx="98.9652" cy="207.717" rx="1.23801" ry="1.39413" transform="rotate(86.4825 98.9652 207.717)" fill="white" fill-opacity="0.6"/>
<ellipse id="Ellipse 70" cx="97.1263" cy="194.849" rx="1.63642" ry="1.85724" transform="rotate(108.977 97.1263 194.849)" fill="white" fill-opacity="0.6"/>
<ellipse id="Ellipse 71" cx="90.8685" cy="195.447" rx="1.33069" ry="2.18609" transform="rotate(131.63 90.8685 195.447)" fill="white" fill-opacity="0.6"/>
<ellipse id="Ellipse 72" cx="82.9043" cy="200.847" rx="2.43723" ry="2.55782" transform="rotate(131.63 82.9043 200.847)" fill="white" fill-opacity="0.6"/>
<ellipse id="Ellipse 80" cx="168.944" cy="72.5437" rx="2.3701" ry="2.41254" transform="rotate(131.63 168.944 72.5437)" fill="white" fill-opacity="0.2"/>
<ellipse id="Ellipse 81" cx="151.728" cy="65.3742" rx="2.3701" ry="2.41254" transform="rotate(131.63 151.728 65.3742)" fill="white" fill-opacity="0.2"/>
<ellipse id="Ellipse 82" cx="168.628" cy="63.758" rx="1.76146" ry="2.41254" transform="rotate(166.457 168.628 63.758)" fill="white" fill-opacity="0.2"/>
<ellipse id="Ellipse 83" cx="155.716" cy="60.1225" rx="1.76146" ry="2.03759" transform="rotate(166.457 155.716 60.1225)" fill="white" fill-opacity="0.2"/>
<ellipse id="Ellipse 84" cx="145.142" cy="55.4894" rx="1.35167" ry="2.03759" transform="rotate(166.457 145.142 55.4894)" fill="white" fill-opacity="0.2"/>
<ellipse id="Ellipse 85" cx="132.254" cy="60.7172" rx="1.12901" ry="1.66459" transform="rotate(-164.095 132.254 60.7172)" fill="white" fill-opacity="0.2"/>
<ellipse id="Ellipse 73" cx="78.1458" cy="190.008" rx="1.77445" ry="1.75013" transform="rotate(131.63 78.1458 190.008)" fill="white" fill-opacity="0.6"/>
<ellipse id="Ellipse 74" cx="75.3949" cy="189.325" rx="1.28152" ry="1.07961" transform="rotate(164.633 75.3949 189.325)" fill="white" fill-opacity="0.6"/>
<ellipse id="Ellipse 75" cx="72.0159" cy="189.023" rx="1.63166" ry="1.24131" transform="rotate(136.654 72.0159 189.023)" fill="white" fill-opacity="0.6"/>
<ellipse id="Ellipse 76" cx="77.1236" cy="175.469" rx="2.2131" ry="1.43972" transform="rotate(83.238 77.1236 175.469)" fill="white" fill-opacity="0.6"/>
<ellipse id="Ellipse 77" cx="66.9417" cy="172.808" rx="1.664" ry="1.33291" transform="rotate(56.695 66.9417 172.808)" fill="white" fill-opacity="0.6"/>
<ellipse id="Ellipse 78" cx="79.5796" cy="165.429" rx="1.29702" ry="1.33291" transform="rotate(56.695 79.5796 165.429)" fill="white" fill-opacity="0.6"/>
<ellipse id="Ellipse 79" cx="83.1156" cy="177.136" rx="1.93366" ry="1.09357" transform="rotate(3.87675 83.1156 177.136)" fill="white" fill-opacity="0.6"/>
<ellipse id="Ellipse 63" cx="129.648" cy="221.883" rx="1.2944" ry="0.877406" transform="rotate(0.232219 129.648 221.883)" fill="white" fill-opacity="0.6"/>
<ellipse id="Ellipse 36" cx="134.928" cy="50.0444" rx="0.780561" ry="1.89978" transform="rotate(27.8548 134.928 50.0444)" fill="white" fill-opacity="0.6"/>
<ellipse id="Ellipse 30" cx="111.433" cy="66.0767" rx="1.90199" ry="2.45331" transform="rotate(-45.423 111.433 66.0767)" fill="white" fill-opacity="0.6"/>
<ellipse id="Ellipse 31" cx="107.433" cy="64.0767" rx="1.90199" ry="2.45331" transform="rotate(-45.423 107.433 64.0767)" fill="white" fill-opacity="0.6"/>
<ellipse id="Ellipse 32" cx="105.433" cy="60.0767" rx="1.90199" ry="2.45331" transform="rotate(12.8176 105.433 60.0767)" fill="white" fill-opacity="0.6"/>
<ellipse id="Ellipse 28" cx="80.9822" cy="73.7645" rx="0.989848" ry="1.51661" transform="rotate(12.1841 80.9822 73.7645)" fill="white" fill-opacity="0.6"/>
<circle id="Ellipse 19" cx="61.8505" cy="109.5" r="1.5" fill="white" fill-opacity="0.6"/>
<ellipse id="Ellipse 20" cx="70.8505" cy="123" rx="2.5" ry="2" transform="rotate(-14.2209 70.8505 123)" fill="white" fill-opacity="0.6"/>
<ellipse id="Ellipse 21" cx="69.1362" cy="118.205" rx="2.5" ry="1.7713" transform="rotate(10.7154 69.1362 118.205)" fill="white" fill-opacity="0.6"/>
<circle id="Ellipse 9" cx="66.3505" cy="161" r="2" fill="white" fill-opacity="0.6"/>
<ellipse id="Ellipse 10" cx="65.1644" cy="163.916" rx="2.50529" ry="1.55775" transform="rotate(49.3472 65.1644 163.916)" fill="white" fill-opacity="0.6"/>
<ellipse id="Ellipse 12" cx="71.2422" cy="162.455" rx="2.98721" ry="2.18765" transform="rotate(74.8637 71.2422 162.455)" fill="white" fill-opacity="0.6"/>
<ellipse id="Ellipse 13" cx="70.0189" cy="165.718" rx="2.38409" ry="1.42698" transform="rotate(47.0819 70.0189 165.718)" fill="white" fill-opacity="0.6"/>
<ellipse id="Ellipse 15" cx="70.6489" cy="155.463" rx="2.08927" ry="1.67286" transform="rotate(92.3404 70.6489 155.463)" fill="white" fill-opacity="0.6"/>
<ellipse id="Ellipse 16" cx="73.0816" cy="156.714" rx="1.4614" ry="0.975172" transform="rotate(43.5272 73.0816 156.714)" fill="white" fill-opacity="0.6"/>
<ellipse id="Ellipse 14" cx="74.3505" cy="164.033" rx="1.74879" ry="1.10491" transform="rotate(47.0819 74.3505 164.033)" fill="white" fill-opacity="0.6"/>
<ellipse id="Ellipse 11" cx="67.5436" cy="159.12" rx="1.52793" ry="1.30583" transform="rotate(66.491 67.5436 159.12)" fill="white" fill-opacity="0.6"/>
<circle id="Ellipse 4" cx="63.8505" cy="137.5" r="1.5" fill="white" fill-opacity="0.6"/>
<ellipse id="Ellipse 3" cx="61.8293" cy="147.578" rx="1.13098" ry="2.44978" transform="rotate(-41.9548 61.8293 147.578)" fill="white" fill-opacity="0.6"/>
<ellipse id="Ellipse 5" cx="66.8293" cy="148.578" rx="1.13098" ry="2.44978" transform="rotate(-6.38617 66.8293 148.578)" fill="white" fill-opacity="0.6"/>
<ellipse id="Ellipse 6" cx="79.6651" cy="137.829" rx="1.13098" ry="1.71419" transform="rotate(-6.38617 79.6651 137.829)" fill="white" fill-opacity="0.6"/>
<ellipse id="Ellipse 7" cx="75.6651" cy="150.829" rx="1.13098" ry="1.71419" transform="rotate(4.04495 75.6651 150.829)" fill="white" fill-opacity="0.6"/>
<ellipse id="Ellipse 8" cx="82.1135" cy="155.382" rx="0.647034" ry="1.2717" transform="rotate(4.04495 82.1135 155.382)" fill="white" fill-opacity="0.6"/>
<g id="Vector 49">
<path d="M86.774 67.8005L83.5866 68.9596C82.5811 69.3252 81.7812 68.0692 82.5378 67.3127L83.9866 65.8639C84.2149 65.6355 84.5395 65.5315 84.8581 65.5846L86.5966 65.8744C87.6109 66.0434 87.7403 67.4492 86.774 67.8005Z" fill="white"/>
<path d="M101.463 59.7507L96.1614 64.2369C95.9621 64.4056 95.7047 64.4896 95.4442 64.471L91.2057 64.1682C90.3247 64.1053 89.9519 63.0145 90.6102 62.4255L97.6911 56.09C98.0676 55.7531 98.6362 55.75 99.0164 56.0827L101.476 58.2347C101.936 58.6375 101.93 59.3556 101.463 59.7507Z" fill="white"/>
</g>
<ellipse id="Ellipse 90" cx="171.713" cy="191" rx="1.56315" ry="1.40108" transform="rotate(114.19 171.713 191)" fill="white" fill-opacity="0.6"/>
</g>
</g>
<g id="spiral-frame">
<g id="spiral">
<g id="Vector 42" filter="url(#filter11_f_106_623)">
<path d="M140.175 69L118.675 67L90.6752 76L103.675 60.5L120.675 56.5H144.675L179.175 68L187.675 80L202.675 111V129.5L198.675 150.5L193.675 167L187.675 170L191.675 143.5L189.675 125.5L184.175 107L178.675 91.5L140.175 69Z" fill="url(#paint5_linear_106_623)"/>
</g>
<g id="Vector 41" filter="url(#filter12_f_106_623)">
<path d="M130.016 200.398L126.039 197.841C125.2 197.301 125.582 196 126.58 196H127.483C127.61 196 127.736 196.024 127.854 196.072L134.962 198.915C135.102 198.971 135.254 198.994 135.404 198.984L155.72 197.533C156.009 197.512 156.293 197.618 156.498 197.823L159.713 201.038C159.994 201.318 160.414 201.406 160.784 201.262L182.916 192.601C183.086 192.535 183.234 192.424 183.345 192.28L188.117 186.076C188.156 186.026 188.19 185.971 188.218 185.914L194.07 174.211C194.139 174.072 194.175 173.919 194.175 173.764V171.11C194.175 171.037 194.183 170.964 194.199 170.893L196.066 162.492C196.135 162.183 196.346 161.924 196.636 161.795L204.768 158.181C205.027 158.066 205.225 157.846 205.313 157.576L209.724 144.003C210.076 142.92 211.675 143.174 211.675 144.312V149.35C211.675 149.449 211.66 149.548 211.631 149.644L203.698 175.425C203.683 175.475 203.672 175.526 203.664 175.578L202.298 185.141C202.228 185.634 201.806 186 201.308 186H197.175C196.623 186 196.175 185.552 196.175 185V184.035C196.175 183.701 196.342 183.389 196.621 183.203L200.345 180.72C200.557 180.579 200.707 180.362 200.765 180.113L201.162 178.391C201.403 177.348 200.059 176.707 199.4 177.55L180.814 201.322C180.723 201.439 180.606 201.534 180.474 201.601L171.803 205.936C171.718 205.978 171.628 206.009 171.535 206.026L160.675 208L152.066 210.392C151.815 210.461 151.548 210.43 151.319 210.306L135.309 201.573C135.22 201.525 135.125 201.49 135.026 201.47L130.361 200.537C130.238 200.513 130.121 200.465 130.016 200.398Z" fill="url(#paint6_linear_106_623)"/>
</g>
<g id="Vector 43" filter="url(#filter13_f_106_623)">
<path d="M172.675 104.5L146.175 77L163.675 82L178.175 91L180.675 100.5L172.675 104.5Z" fill="#73B64B" style="mix-blend-mode:difference"/>
</g>
<g id="Vector 44" filter="url(#filter14_f_106_623)">
<path d="M188.175 99L187.682 113.791C187.678 113.93 187.687 114.069 187.712 114.206L192.175 139.5L193.091 143.621C193.147 143.871 193.154 144.13 193.111 144.383L191.675 153L186.175 170.5L184.761 178.986C184.705 179.323 184.563 179.64 184.35 179.907L180.97 184.131C180.776 184.374 180.528 184.568 180.247 184.698L167.675 190.5M171.175 190.5L184.343 185.327C184.873 185.119 185.288 184.695 185.487 184.162L191.675 167.5L197.533 153.343C197.627 153.116 197.678 152.874 197.685 152.629L198.172 133.146C198.174 133.049 198.169 132.952 198.158 132.855L196.175 116.5L194.724 99.5644C194.692 99.1954 194.559 98.8424 194.338 98.5448L184.846 85.7309C184.733 85.5778 184.598 85.4416 184.446 85.3266L166.317 71.607C166.223 71.5358 166.122 71.4731 166.017 71.4195L138.675 57.5M189.675 119L194.542 131.653C194.63 131.883 194.675 132.126 194.675 132.371V139.5V142L193.192 154.357C193.181 154.452 193.163 154.546 193.138 154.639L189.675 167.5L187.675 172.5L184.917 182.154C184.763 182.693 184.39 183.143 183.888 183.393L173.675 188.5M199.675 144L203.019 133.492C203.121 133.169 203.14 132.826 203.074 132.494L200.75 120.874C200.701 120.627 200.698 120.373 200.744 120.124L201.556 115.656C201.633 115.23 201.571 114.791 201.377 114.404L200.328 112.306C200.227 112.104 200.161 111.885 200.133 111.66L199.212 104.292C199.188 104.098 199.135 103.909 199.056 103.731L189.859 82.915C189.738 82.6418 189.558 82.3991 189.331 82.2048L182.795 76.6024C182.715 76.5342 182.63 76.4724 182.541 76.4176L176.33 72.5952C176.227 72.5319 176.13 72.4593 176.04 72.3785L166.175 63.5M180.675 88L190.125 96.9772C190.479 97.314 190.698 97.7691 190.74 98.2564L192.175 115M174.675 193.5L187.358 187.393C187.878 187.143 188.264 186.682 188.418 186.127L193.087 169.317C193.145 169.107 193.238 168.908 193.36 168.728L201.543 156.695C201.631 156.565 201.703 156.426 201.759 156.28L207.175 142M184.675 105.5V96.7241C184.675 96.2562 184.511 95.8032 184.212 95.4437L179.675 90L172.566 81.9423C172.311 81.6536 171.978 81.4445 171.607 81.3403L156.371 77.0551C156.241 77.0185 156.107 76.9951 155.972 76.9855L149.86 76.5489C149.416 76.5172 148.996 76.3383 148.665 76.0406L139.175 67.5M127.175 61L144.86 65.4213C145.069 65.4734 145.268 65.5588 145.449 65.6742L155.999 72.3879C156.116 72.4624 156.241 72.5246 156.371 72.5733L164.175 75.5M162.675 65L151.175 57.5L142.511 50.6594C141.988 50.2472 141.295 50.1216 140.662 50.3243L129.175 54M135.675 61L124.84 57.5524C124.73 57.5175 124.618 57.4922 124.504 57.4766L114.188 56.0699C113.852 56.0241 113.509 56.0646 113.193 56.1876L104.675 59.5M133.175 61L117.386 59.5197C117.246 59.5066 117.105 59.5083 116.965 59.5247L108.675 60.5M135.675 65.5L122.507 63.5492C122.287 63.5166 122.064 63.5209 121.845 63.5618L114.175 65M138.675 72.5L129.168 68.2217C128.845 68.0765 128.49 68.0195 128.138 68.0566L119.175 69" stroke="url(#paint7_linear_106_623)" stroke-width="2"/>
</g>
<g id="Vector 47" filter="url(#filter15_f_106_623)">
<path d="M80.6752 169.5L84.6752 173.5L89.6752 181.5L104.675 194.5L121.675 197.5M83.6752 176.5L91.1752 187.5L101.675 194L112.175 203.5L99.6752 196L89.6752 192L82.6752 180M128.175 203.5L122.175 200M112.675 198L124.175 206.5M113.675 192L124.175 195.5M101.675 189L108.175 192.5L113.675 194M109.675 198L116.175 205L122.675 208M137.175 204.5L127.675 201M136.175 196L125.675 193M173.675 167.5L180.175 157M168.175 177L175.675 172L180.175 161M174.175 176.5L178.175 172L179.175 168.5M174.175 169L177.175 165" stroke="#60A247"/>
</g>
<g id="Vector 36" filter="url(#filter16_f_106_623)">
<path d="M124.175 80.5L113.51 75.7598C111.686 74.9493 109.626 74.8499 107.733 75.4809V75.4809C106.705 75.8234 105.619 75.9536 104.539 75.8637L104.134 75.8299C101.592 75.6181 99.0651 76.3881 97.073 77.9818L88.0757 85.1797C86.1674 86.7063 84.6342 88.6497 83.5937 90.8608L78.923 100.786C77.7764 103.223 77.2633 105.909 77.4313 108.597L77.4671 109.17C77.6044 111.366 77.287 113.568 76.5349 115.636L73.6752 123.5L72.2963 128.671C71.8846 130.215 71.7065 131.812 71.7679 133.409L72.1151 142.436C72.1551 143.476 72.0935 144.518 71.9311 145.546L70.6752 153.5L69.2914 137.816C69.2141 136.94 69.2091 136.059 69.2766 135.183L70.0718 124.845C70.1406 123.95 70.2847 123.062 70.5024 122.191L74.6752 105.5" stroke="url(#paint8_radial_106_623)"/>
</g>
<g id="Vector 40" filter="url(#filter17_f_106_623)">
<path d="M130.175 191C130.175 191 125.175 185.5 126.175 185C127.175 184.5 140.419 188.962 148.675 185C143.152 183.424 142.392 182.884 139.675 180C154.271 180.159 165.538 181.681 180.675 175V170.5C181.217 164.697 182.017 160.785 183.675 153.5V148.5C183.675 148.5 184.675 145.5 185.675 144.5C186.675 143.5 187.175 146 187.175 146L191.175 134.5V141L187.675 149.5L188.175 153.5L187.175 155V159C187.175 159 188.175 159.5 188.175 161C188.175 162.5 185.675 169.5 185.675 169.5L184.675 176C184.675 176 181.175 183.5 176.175 187C171.175 190.5 150.175 196.5 144.675 196C139.175 195.5 135.175 193 135.175 193C135.175 193 143.675 202 141.675 202C139.675 202 130.175 195.5 129.675 194C129.175 192.5 130.175 191 130.175 191Z" fill="url(#paint9_linear_106_623)"/>
</g>
<g id="Vector 39" filter="url(#filter18_f_106_623)">
<path d="M96.1752 88.5L79.6752 108L86.6752 90L96.1752 88.5Z" fill="#4B9539"/>
</g>
<g id="Vector 38" filter="url(#filter19_f_106_623)">
<path d="M66.1752 142.5L61.1099 133.636C60.5384 132.636 60.59 131.397 61.2425 130.448L65.1474 124.768C65.4912 124.268 65.6752 123.675 65.6752 123.068V121.743C65.6752 120.947 65.9913 120.184 66.5539 119.621L72.6752 113.5" stroke="#C0DE7F"/>
</g>
<g id="Vector 37" filter="url(#filter20_f_106_623)">
<path d="M68.1752 154C66.7738 145.899 66.1752 131 65.1752 133.5C65.2605 130.18 66.6752 132.5 67.1752 122.5" stroke="#73C442" stroke-width="2"/>
</g>
<path id="Vector 34" d="M90.6752 108.5L81.1752 123L91.6752 112L90.6752 108.5Z" fill="#8BD046"/>
<path id="Vector 31" d="M88.6752 157.5L91.0854 159.566C91.8062 160.184 92.4113 160.925 92.8723 161.755L94.3097 164.342C94.5528 164.78 94.8366 165.194 95.1571 165.578L97.1752 168L102.84 173.665C103.718 174.543 104.789 175.204 105.967 175.597L108.675 176.5" stroke="#82C161" stroke-width="2"/>
<path id="Vector 32" d="M89.1752 164.5L94.2251 171.386C94.5232 171.793 94.8859 172.147 95.2988 172.436L99.2063 175.172C99.4534 175.345 99.7963 175.258 99.9312 174.988V174.988C100.062 174.727 100.39 174.635 100.637 174.791L109.675 180.5" stroke="#A2DF6D" stroke-width="2"/>
<path id="Vector 29" d="M84.6752 154C83.0144 124.647 88.0165 111.215 109.175 93.5C109.175 93.5 93.0502 98 85.1752 119C77.3002 140 84.6752 154 84.6752 154Z" fill="#59B540"/>
<path id="Vector" d="M152.896 175.587L158.411 176.458C158.585 176.486 158.749 176.555 158.889 176.66C159.61 177.201 159.387 178.336 158.515 178.564L149.175 181L146.115 182.224C145.319 182.542 145.232 183.634 145.967 184.075C146.868 184.616 146.485 186 145.434 186H136.986C136.098 186 135.87 184.771 136.698 184.453C137.438 184.168 137.359 183.096 136.585 182.924L126.252 180.628C125.869 180.543 125.502 180.402 125.16 180.21L119.794 177.192C118.389 176.402 116.845 175.899 115.351 175.296C111.258 173.643 108.447 170.065 104.174 163.741C103.842 163.25 103.448 162.802 103.013 162.398C99.4239 159.066 97.5042 156.036 95.3318 150.874C94.8898 149.824 95.963 148.795 97.0042 149.257C97.8154 149.618 98.7378 149.061 98.7969 148.175L98.9692 145.591C99.0195 144.835 98.0139 144.532 97.6385 145.189C97.4052 145.598 96.8475 145.672 96.515 145.34L95.3278 144.153C94.9138 143.739 94.7025 143.164 94.7498 142.58L95.7678 130.024C96.033 126.754 97.2972 123.644 99.3892 121.116L108.175 110.5L96.4635 123.019C94.6339 124.975 93.3246 127.359 92.6554 129.952L90.0864 139.907C89.813 140.966 89.6458 142.053 89.6059 143.146C89.3037 151.439 89.7882 158.184 90.9857 167.669C91.6794 173.164 95.258 177.86 100.325 180.096L109.175 184L107.755 176.428C107.714 176.206 107.884 176 108.111 176C108.374 176 108.549 175.727 108.439 175.487L105.675 169.5C113.788 177.661 120.641 179.498 132.675 183L114.175 180L126.432 188.485C126.905 188.813 127.216 189.326 127.287 189.897C127.469 191.353 126.089 192.512 124.686 192.08L121.876 191.216C121.413 191.073 120.923 191.02 120.439 191.047C109.077 191.683 103.369 187.818 93.6752 179.5L99.4306 191.422C100.007 192.615 99.1373 194 97.8124 194C97.4002 194 96.9983 193.859 96.6837 193.593C92.4586 190.019 91.214 186.898 89.6752 181L85.4397 159.352C85.2637 158.452 85.1642 157.537 85.1484 156.62C85.0164 148.962 85.23 143.852 86.2547 136.046C86.5188 134.033 87.2013 132.097 88.1936 130.326C93.5744 120.727 96.6943 113.937 103.675 106L93.6752 110.5L95.1483 107.764C96.4763 105.298 98.4012 103.171 100.882 101.871C107.302 98.5063 112.278 97.7655 117.412 99.3829C120.594 100.385 123.98 100.959 127.175 100C124.214 97.8636 121.033 96.3767 114.175 93.5C120.748 91.9121 124.653 91.672 131.644 95.4297C132.322 95.7941 133.08 96 133.85 96H136.738C138.007 96 138.966 94.8506 138.739 93.602L138.579 92.7212C138.39 91.68 139.339 90.7909 140.365 91.0475L141.318 91.2857C141.753 91.3945 142.175 91.0652 142.175 90.6163C142.175 90.1035 142.715 89.7699 143.174 89.9992L143.372 90.0982C143.804 90.3145 144.329 90.1149 144.509 89.6658L144.619 89.3912C144.894 88.7019 145.76 88.4787 146.335 88.9488L156.175 97L150.175 90.5C147.302 87.1479 137.253 85.4722 123.075 84.1702C122.045 84.0756 121.298 83.1388 121.445 82.1146C121.576 81.1979 122.38 80.5293 123.305 80.5679L132.416 80.9475C133.103 80.9761 133.675 80.4269 133.675 79.7392C133.675 78.8965 134.516 78.3121 135.306 78.6056L149.041 83.7071C150.45 84.2305 151.753 85.0186 152.819 86.0784C157.774 91.0042 160.123 95.1132 161.734 102.729C162.051 104.228 162.523 105.696 163.208 107.066L163.675 108V103C164.946 108.498 165.734 111.368 167.675 115C167.394 110.74 166.888 108.327 165.675 104C170.887 111.963 172.517 117.776 174.91 127.878C175.084 128.61 175.457 129.282 175.989 129.814C176.749 130.573 177.175 131.603 177.175 132.677V142.775C177.175 145.859 176.284 148.878 174.608 151.467L172.596 154.577C171.984 155.523 171.273 156.402 170.477 157.199L167.406 160.269C165.611 162.064 163.417 163.415 160.992 164.165C153.277 166.55 148.04 167.758 139.675 169C145.07 171.644 148.152 172.481 152.975 169.893C153.443 169.641 153.865 169.31 154.241 168.934C154.857 168.318 155.597 167.839 156.412 167.53C162.145 165.361 165.95 163.981 172.389 158.784C174.583 157.013 176.145 154.591 177.037 151.916L179.354 144.963C179.898 143.332 180.175 141.623 180.175 139.904V126C182.443 127.152 182.787 129.914 182.675 136.5C184.861 132.184 184.278 127.826 182.484 119.858C182.361 119.31 181.658 119.147 181.307 119.586C180.917 120.072 180.133 119.813 180.111 119.19L179.675 107L183.175 116L184.175 108L187.069 124.122C187.469 126.349 187.392 128.635 186.843 130.829L186.398 132.61C186.25 133.201 186.175 133.808 186.175 134.418V136.329C186.175 137.385 185.695 138.384 184.87 139.044C184.109 139.653 183.644 140.556 183.555 141.527C182.859 149.091 180.874 153.618 175.53 160.426C174.993 161.111 174.757 161.992 174.9 162.851C175.072 163.878 174.707 164.922 173.932 165.619L171.692 167.635C170.867 168.377 170.834 169.658 171.618 170.442C172.595 171.42 172.261 173.078 170.948 173.512C168.621 174.282 165.977 174.919 161.683 175.796C161.015 175.932 160.322 175.983 159.641 175.95C157.285 175.834 155.038 175.714 152.896 175.587Z" fill="#8BD046"/>
<path id="Vector_2" d="M136.53 134.468L136.297 134.817C136.218 134.936 136.175 135.076 136.175 135.22C136.175 135.783 136.79 136.131 137.273 135.841L138.068 135.364C138.445 135.138 138.675 134.731 138.675 134.292V132.276C138.675 131.456 138.365 130.666 137.807 130.065L134.557 126.565C133.707 125.65 132.175 126.251 132.175 127.501V129.848C132.175 130.668 131.078 130.943 130.692 130.219L130.209 129.314C129.864 128.667 128.879 129.019 129.023 129.738C129.102 130.132 128.8 130.5 128.398 130.5H127.438C126.961 130.5 126.517 130.738 126.252 131.134L124.651 133.537C124.011 134.496 123.625 135.603 123.529 136.753L123.475 137.399C123.282 139.714 123.967 142.018 125.394 143.853C126.238 144.937 127.312 145.821 128.539 146.438L130.018 147.183C135.34 149.862 141.709 149.363 146.547 145.888L149.175 144C154.205 138.327 155.056 134.086 154.675 125.5C157.893 131.99 158.867 136.134 158.175 145C154.539 149.326 152.108 151.757 147.449 155.101C146.608 155.705 145.698 156.215 144.743 156.614C138.387 159.268 134.894 159.711 129.85 158.541C129.735 158.514 129.624 158.468 129.524 158.407L119.904 152.487C119.61 152.306 119.843 151.857 120.16 151.993C120.17 151.998 120.175 152 120.186 152.003C120.518 152.1 128.756 154.49 132.675 154C136.675 153.5 143.623 152.577 145.175 151C145.175 151 137.175 152 133.175 152C131.084 152 127.489 150.36 124.535 148.795C121.327 147.095 119.028 144.131 117.841 140.701L115.175 133C113.533 134.561 112.99 135.594 112.175 137.5C111.656 134.925 111.734 132.188 112.675 124.5C108.551 128.881 106.624 132.06 108.734 138.971C109.755 142.315 109.905 145.839 110.002 149.335C110.086 152.397 111.288 154.689 113.989 157.178C115.373 158.453 117.094 159.287 118.89 159.848L124.175 161.5C121.448 162.113 119.822 162.066 116.675 161C118.133 162.832 119.067 164.077 120.406 165.93C120.728 166.377 120.409 167 119.858 167C119.335 167 119.019 167.564 119.345 167.973C122.655 172.121 130.371 173.784 145.175 174.5C149.198 174.717 160.675 176 158.675 176.5C157.432 176.811 153.675 176.349 151.011 175.954C149.132 175.676 146.096 176.108 144.214 175.848C142.031 175.548 141.037 174.954 138.836 174.866L131.861 174.587C130.411 174.529 128.97 174.285 127.602 173.8C125.012 172.881 123.019 171.993 120.631 170.882C118.68 169.973 116.933 168.675 115.493 167.075L109.224 160.11C108.875 159.722 108.377 159.5 107.854 159.5C107.136 159.5 106.482 159.082 106.181 158.429L104.594 154.992C103.993 153.689 103.765 152.246 103.935 150.822L105.837 134.841C106.06 132.964 106.64 131.147 107.545 129.488L111.027 123.106C111.725 121.826 113.112 121.078 114.565 121.199L115.442 121.272C116.959 121.399 118.297 120.285 118.448 118.77C118.58 117.45 119.625 116.405 120.946 116.273L123.594 116.008C123.646 116.003 123.696 115.98 123.733 115.942C123.884 115.791 123.76 115.535 123.548 115.555C114.665 116.378 111.976 118.519 109.217 124.734C108.848 125.564 108.345 126.331 107.702 126.973L103.675 131C104.812 126.961 106.438 123.933 110.675 117.5C106.338 120.093 104.165 121.983 100.675 126C103.171 121.403 105.046 118.875 109.675 114.5C113.882 111.198 117.149 110.222 124.4 110.873C125.241 110.949 126.093 110.881 126.905 110.649C128.372 110.229 129.963 110.302 131.251 111.12C133.637 112.636 136.008 114.874 139.036 117.561C140.118 118.522 141.089 119.607 141.867 120.827C143.946 124.094 145.143 126.472 146.596 130.292C146.644 130.418 146.614 130.561 146.519 130.656C146.351 130.824 146.068 130.774 145.966 130.56C144.329 127.156 143.088 125.277 140.175 122.5L142.011 130.761C142.687 133.805 141.115 136.901 138.259 138.151L136.343 138.989C135.611 139.31 134.768 139.256 134.082 138.844C133.23 138.333 132.767 137.36 132.907 136.376L133.629 131.324C133.659 131.111 133.743 130.91 133.871 130.739C134.456 129.959 135.662 130.096 136.058 130.986L136.703 132.437C136.997 133.099 136.932 133.865 136.53 134.468Z" fill="#3D7E2F"/>
<path id="Vector 15" d="M158.675 127L162.675 135L163.675 132C164.079 133.086 164.229 133.726 164.175 135C164.583 137.365 165.507 134.74 167.13 130.13L167.175 130C167.634 131.84 167.669 132.802 167.675 134.5C169.117 132.416 169.627 130.955 169.675 127.5C168.909 123.25 168.396 121.709 167.175 122L166.175 125.5C164.219 120.502 163.665 117.274 162.682 111.54L162.675 111.5C161.099 107.481 159.886 106.01 157.675 103.5C152.684 101.575 151.039 100.295 148.175 98C150.184 100.876 151.089 102.322 152.175 104.5C152.175 104.5 153.675 104.5 154.675 105C155.675 105.5 159.675 115 157.675 114C155.675 113 154.101 107.159 151.675 106C156.224 117.531 158.531 120.684 158.675 127Z" fill="#3A7F31"/>
<path id="Vector 16" d="M157.675 124C155.079 119.358 153.416 116.892 149.675 113C151.025 116.379 153.004 118.649 153.175 121.5C154.897 120.77 155.237 121.533 157.675 124Z" fill="#3B802E"/>
<path id="Vector 17" d="M175.002 140.605C172.486 149.232 169.575 153.184 163.684 159C163.389 159.292 162.928 159.335 162.583 159.105C162.117 158.794 162.059 158.13 162.459 157.738C168.014 152.288 170.823 148.356 173.339 140.13C173.51 139.573 174.169 139.329 174.654 139.652C174.965 139.86 175.106 140.247 175.002 140.605Z" fill="#3D7E2F"/>
<path id="Vector 18" d="M135.175 176L113.175 171.5C118.745 178.773 125.588 180.014 136.675 183C134.906 184.8 132.02 184.704 127.675 185C138.789 188.341 144.045 188.827 151.175 186.5C146.277 185.798 143.857 185.275 144.175 182.5C152.279 181.04 156.992 180.267 160.175 177.5C152.012 172.371 146.169 172.746 135.175 176Z" fill="#5BBE43"/>
<path id="Vector 19" d="M125.175 115.5C114.066 115.707 110.034 119.072 106.175 130L112.675 121.5C112.675 121.5 115.675 122.5 117.675 121C119.675 119.5 119.175 117.5 119.175 117.5L125.175 115.5Z" fill="#5CBF45"/>
<g id="Vector 20">
<path d="M134.675 85.5C135.675 86 147.675 86 154.175 94.5C158.675 83.5 135.675 77 134.175 78C132.675 79 133.175 81 133.175 81C133.175 81 122.175 78.5 121.175 80.5C120.175 82.5 121.675 83.5 121.675 83.5C121.675 83.5 120.175 84.5 120.675 85C121.175 85.5 129.289 87.1683 134.675 86.5C134.675 86.5 133.675 85 134.675 85.5Z" fill="#63C447"/>
<path d="M134.675 85.5C135.675 86 147.675 86 154.175 94.5C158.675 83.5 135.675 77 134.175 78C132.675 79 133.175 81 133.175 81C133.175 81 122.175 78.5 121.175 80.5C120.175 82.5 121.675 83.5 121.675 83.5C121.675 83.5 120.175 84.5 120.675 85C121.175 85.5 129.289 87.1683 134.675 86.5C134.675 86.5 133.675 85 134.675 85.5Z" fill="url(#paint10_linear_106_623)"/>
</g>
<g id="Vector 21" filter="url(#filter21_f_106_623)">
<path d="M142.347 128.308C143.231 137.597 137.416 140.78 133.759 139.487C132.886 139.179 131.748 139.355 131.334 140.182C130.979 140.892 131.317 141.729 132.095 141.882C134.057 142.266 137.901 142.546 142.675 140.5C147.633 138.375 145.988 131.592 143.953 127.562C143.222 126.113 142.193 126.692 142.347 128.308Z" fill="#71C341"/>
</g>
<path id="Vector 22" d="M130.675 117.5C134.675 119.5 134.675 121 134.175 121.5" stroke="#5CBF45"/>
<path id="Vector 24" d="M122.595 136.23L122.98 136.326C123.389 136.428 123.675 136.795 123.675 137.217C123.675 137.963 124.519 138.397 125.126 137.963L125.968 137.363C126.63 136.889 126.773 135.964 126.285 135.313L126.168 135.156C125.858 134.743 125.371 134.5 124.855 134.5H122.808C122.43 134.5 122.095 134.742 121.975 135.1C121.813 135.586 122.099 136.106 122.595 136.23Z" fill="#5DC246"/>
<path id="Vector 23" d="M129.675 140.5L129.175 145.5C124.27 144.959 123.675 140 124.175 138.5C124.675 137 127.028 136.531 128.675 137C127.265 137.797 126.481 138.341 125.175 140.5C125.941 142.055 126.42 142.747 127.675 142.5V139.5C127.675 139.5 130.675 137 130.675 135C130.675 133 128.675 132.5 128.675 132.5L129.175 128.5C131.3 130.677 132.121 132.264 133.175 135.5L129.675 140.5Z" fill="#C0DE7F"/>
<path id="Vector 25" d="M126.681 122.502L133.256 124.85C133.357 124.886 133.432 124.768 133.353 124.697C132.513 123.934 130.183 122 128.175 122C125.779 122 126.598 122.459 126.67 122.497C126.674 122.499 126.677 122.501 126.681 122.502Z" fill="#72BE56"/>
<path id="Vector 26" d="M115.175 128C116.375 125.2 119.009 124.167 120.175 124" stroke="#5BA541"/>
<path id="Vector 27" d="M127.175 89.5C116.884 91.7722 112.351 94.2284 104.675 99L109.675 93.5L101.675 94C110.335 89.6457 116.193 88.86 127.175 89.5Z" fill="#B8DB76"/>
<path id="Vector 28" d="M130.175 88.5C133.775 89.3 135.675 91.5 136.175 92.5" stroke="#77C548"/>
<path id="Vector 30" d="M97.6752 104.5C86.2892 122.182 82.6954 132.853 84.1752 154.5C79.7217 139.891 79.9811 131.759 90.6462 112.594C87.6179 122.434 82.3215 126.611 82.6752 139C84.1377 125.386 88.3118 117.86 97.6752 104.5Z" fill="#BBDB79"/>
<ellipse id="Ellipse 1" cx="98.1752" cy="169" rx="2" ry="1.5" fill="white"/>
<g id="Vector 33" filter="url(#filter22_f_106_623)">
<path d="M84.1752 122.5C78.7887 132.401 76.6614 138.19 74.6752 149C73.3666 143.335 72.8882 140.091 73.1752 134V127.5C75.0163 122.71 75.7292 119.592 80.6752 119C81.9371 113.361 83.6305 109.879 87.1752 103.5C91.4981 97.5817 93.9056 95.121 98.1752 92C91.3845 100.13 88.6305 104.186 85.6752 110.5L89.1752 107.5C85.021 113.764 82.9837 118.292 79.6752 127.5L84.1752 122.5Z" fill="#61B940"/>
</g>
<g id="Vector 35">
<path d="M110.675 86L91.6752 91C91.6752 91 95.6752 85 101.175 84C106.675 83 110.675 86 110.675 86Z" fill="#7BC543"/>
<path d="M103.675 80.5C99.6752 80 98.1752 78 98.1752 78C98.1752 78 102.675 76.5 107.675 76.5C112.675 76.5 114.675 80.5 114.675 80.5C114.675 80.5 107.675 81 103.675 80.5Z" fill="#7BC543"/>
<path d="M111.675 82.5C110.675 82 105.175 82 105.175 82L105.675 82.5C106.675 83.5 111.175 83.5 111.175 83.5C111.175 83.5 112.675 83 111.675 82.5Z" fill="#7BC543"/>
</g>
<g id="Vector 45" filter="url(#filter23_f_106_623)">
<path d="M172.175 104.5L162.175 84.5M178.175 101.5L169.175 89.5" stroke="#70B248"/>
</g>
<path id="Vector 46" d="M176.175 108C175.175 107.5 175.175 107 174.675 107.5C174.175 108 175.175 125.5 175.675 126.5C176.175 127.5 176.675 126.5 177.175 126C177.675 125.5 177.175 108.5 176.175 108Z" fill="#8BD046"/>
<path id="Vector 48" d="M132.175 100.5C137.292 103.442 139.913 105.535 144.175 110" stroke="#D1E59F"/>
<ellipse id="Ellipse 89" cx="163.175" cy="191.887" rx="0.884542" ry="0.770535" transform="rotate(114.19 163.175 191.887)" fill="white" fill-opacity="0.6"/>
</g>
</g>
</g>
<defs>
<filter id="filter0_f_106_623" x="55.2646" y="91" width="13.5859" height="82" filterUnits="userSpaceOnUse" color-interpolation-filters="sRGB">
<feFlood flood-opacity="0" result="BackgroundImageFix"/>
<feBlend mode="normal" in="SourceGraphic" in2="BackgroundImageFix" result="shape"/>
<feGaussianBlur stdDeviation="1" result="effect1_foregroundBlur_106_623"/>
</filter>
<filter id="filter1_f_106_623" x="58.8462" y="38.1122" width="154.389" height="106.388" filterUnits="userSpaceOnUse" color-interpolation-filters="sRGB">
<feFlood flood-opacity="0" result="BackgroundImageFix"/>
<feBlend mode="normal" in="SourceGraphic" in2="BackgroundImageFix" result="shape"/>
<feGaussianBlur stdDeviation="1" result="effect1_foregroundBlur_106_623"/>
</filter>
<filter id="filter2_df_106_623" x="0.613342" y="0.195816" width="257.022" height="272.409" filterUnits="userSpaceOnUse" color-interpolation-filters="sRGB">
<feFlood flood-opacity="0" result="BackgroundImageFix"/>
<feColorMatrix in="SourceAlpha" type="matrix" values="0 0 0 0 0 0 0 0 0 0 0 0 0 0 0 0 0 0 127 0" result="hardAlpha"/>
<feOffset/>
<feGaussianBlur stdDeviation="32"/>
<feColorMatrix type="matrix" values="0 0 0 0 0.239216 0 0 0 0 0.494118 0 0 0 0 0.184314 0 0 0 1 0"/>
<feBlend mode="normal" in2="BackgroundImageFix" result="effect1_dropShadow_106_623"/>
<feBlend mode="normal" in="SourceGraphic" in2="effect1_dropShadow_106_623" result="shape"/>
<feGaussianBlur stdDeviation="1" result="effect2_foregroundBlur_106_623"/>
</filter>
<filter id="filter3_f_106_623" x="62.3505" y="81.4924" width="18" height="15.5076" filterUnits="userSpaceOnUse" color-interpolation-filters="sRGB">
<feFlood flood-opacity="0" result="BackgroundImageFix"/>
<feBlend mode="normal" in="SourceGraphic" in2="BackgroundImageFix" result="shape"/>
<feGaussianBlur stdDeviation="1" result="effect1_foregroundBlur_106_623"/>
</filter>
<filter id="filter4_f_106_623" x="69.3505" y="59.5" width="39" height="23" filterUnits="userSpaceOnUse" color-interpolation-filters="sRGB">
<feFlood flood-opacity="0" result="BackgroundImageFix"/>
<feBlend mode="normal" in="SourceGraphic" in2="BackgroundImageFix" result="shape"/>
<feGaussianBlur stdDeviation="2" result="effect1_foregroundBlur_106_623"/>
</filter>
<filter id="filter5_f_106_623" x="146.35" y="190" width="55" height="31.5" filterUnits="userSpaceOnUse" color-interpolation-filters="sRGB">
<feFlood flood-opacity="0" result="BackgroundImageFix"/>
<feBlend mode="normal" in="SourceGraphic" in2="BackgroundImageFix" result="shape"/>
<feGaussianBlur stdDeviation="1" result="effect1_foregroundBlur_106_623"/>
</filter>
<filter id="filter6_f_106_623" x="102.35" y="45" width="30" height="12.5" filterUnits="userSpaceOnUse" color-interpolation-filters="sRGB">
<feFlood flood-opacity="0" result="BackgroundImageFix"/>
<feBlend mode="normal" in="SourceGraphic" in2="BackgroundImageFix" result="shape"/>
<feGaussianBlur stdDeviation="1" result="effect1_foregroundBlur_106_623"/>
</filter>
<filter id="filter7_f_106_623" x="168.35" y="132.5" width="48" height="73" filterUnits="userSpaceOnUse" color-interpolation-filters="sRGB">
<feFlood flood-opacity="0" result="BackgroundImageFix"/>
<feBlend mode="normal" in="SourceGraphic" in2="BackgroundImageFix" result="shape"/>
<feGaussianBlur stdDeviation="1" result="effect1_foregroundBlur_106_623"/>
</filter>
<filter id="filter8_f_106_623" x="162.85" y="194.405" width="34.5" height="19.4692" filterUnits="userSpaceOnUse" color-interpolation-filters="sRGB">
<feFlood flood-opacity="0" result="BackgroundImageFix"/>
<feBlend mode="normal" in="SourceGraphic" in2="BackgroundImageFix" result="shape"/>
<feGaussianBlur stdDeviation="0.5" result="effect1_foregroundBlur_106_623"/>
</filter>
<filter id="filter9_f_106_623" x="210.35" y="113" width="4.5" height="18.5" filterUnits="userSpaceOnUse" color-interpolation-filters="sRGB">
<feFlood flood-opacity="0" result="BackgroundImageFix"/>
<feBlend mode="normal" in="SourceGraphic" in2="BackgroundImageFix" result="shape"/>
<feGaussianBlur stdDeviation="0.5" result="effect1_foregroundBlur_106_623"/>
</filter>
<filter id="filter10_f_106_623" x="126.722" y="199.483" width="31.5092" height="21.911" filterUnits="userSpaceOnUse" color-interpolation-filters="sRGB">
<feFlood flood-opacity="0" result="BackgroundImageFix"/>
<feBlend mode="normal" in="SourceGraphic" in2="BackgroundImageFix" result="shape"/>
<feGaussianBlur stdDeviation="1" result="effect1_foregroundBlur_106_623"/>
</filter>
<filter id="filter11_f_106_623" x="66.6752" y="32.5" width="160" height="161.5" filterUnits="userSpaceOnUse" color-interpolation-filters="sRGB">
<feFlood flood-opacity="0" result="BackgroundImageFix"/>
<feBlend mode="normal" in="SourceGraphic" in2="BackgroundImageFix" result="shape"/>
<feGaussianBlur stdDeviation="12" result="effect1_foregroundBlur_106_623"/>
</filter>
<filter id="filter12_f_106_623" x="123.578" y="141.311" width="90.097" height="71.1166" filterUnits="userSpaceOnUse" color-interpolation-filters="sRGB">
<feFlood flood-opacity="0" result="BackgroundImageFix"/>
<feBlend mode="normal" in="SourceGraphic" in2="BackgroundImageFix" result="shape"/>
<feGaussianBlur stdDeviation="1" result="effect1_foregroundBlur_106_623"/>
</filter>
<filter id="filter13_f_106_623" x="122.175" y="53" width="82.5" height="75.5" filterUnits="userSpaceOnUse" color-interpolation-filters="sRGB">
<feFlood flood-opacity="0" result="BackgroundImageFix"/>
<feBlend mode="normal" in="SourceGraphic" in2="BackgroundImageFix" result="shape"/>
<feGaussianBlur stdDeviation="12" result="effect1_foregroundBlur_106_623"/>
</filter>
<filter id="filter14_f_106_623" x="100.313" y="45.2292" width="111.797" height="153.172" filterUnits="userSpaceOnUse" color-interpolation-filters="sRGB">
<feFlood flood-opacity="0" result="BackgroundImageFix"/>
<feBlend mode="normal" in="SourceGraphic" in2="BackgroundImageFix" result="shape"/>
<feGaussianBlur stdDeviation="2" result="effect1_foregroundBlur_106_623"/>
</filter>
<filter id="filter15_f_106_623" x="77.3217" y="153.737" width="106.316" height="57.7172" filterUnits="userSpaceOnUse" color-interpolation-filters="sRGB">
<feFlood flood-opacity="0" result="BackgroundImageFix"/>
<feBlend mode="normal" in="SourceGraphic" in2="BackgroundImageFix" result="shape"/>
<feGaussianBlur stdDeviation="1.5" result="effect1_foregroundBlur_106_623"/>
</filter>
<filter id="filter16_f_106_623" x="66.7294" y="72.5705" width="59.6489" height="83.0075" filterUnits="userSpaceOnUse" color-interpolation-filters="sRGB">
<feFlood flood-opacity="0" result="BackgroundImageFix"/>
<feBlend mode="normal" in="SourceGraphic" in2="BackgroundImageFix" result="shape"/>
<feGaussianBlur stdDeviation="1" result="effect1_foregroundBlur_106_623"/>
</filter>
<filter id="filter17_f_106_623" x="122.043" y="130.5" width="73.1322" height="75.5" filterUnits="userSpaceOnUse" color-interpolation-filters="sRGB">
<feFlood flood-opacity="0" result="BackgroundImageFix"/>
<feBlend mode="normal" in="SourceGraphic" in2="BackgroundImageFix" result="shape"/>
<feGaussianBlur stdDeviation="2" result="effect1_foregroundBlur_106_623"/>
</filter>
<filter id="filter18_f_106_623" x="76.6752" y="85.5" width="22.5" height="25.5" filterUnits="userSpaceOnUse" color-interpolation-filters="sRGB">
<feFlood flood-opacity="0" result="BackgroundImageFix"/>
<feBlend mode="normal" in="SourceGraphic" in2="BackgroundImageFix" result="shape"/>
<feGaussianBlur stdDeviation="1.5" result="effect1_foregroundBlur_106_623"/>
</filter>
<filter id="filter19_f_106_623" x="58.7146" y="111.646" width="15.8142" height="32.6016" filterUnits="userSpaceOnUse" color-interpolation-filters="sRGB">
<feFlood flood-opacity="0" result="BackgroundImageFix"/>
<feBlend mode="normal" in="SourceGraphic" in2="BackgroundImageFix" result="shape"/>
<feGaussianBlur stdDeviation="0.75" result="effect1_foregroundBlur_106_623"/>
</filter>
<filter id="filter20_f_106_623" x="62.1756" y="120.45" width="8.98502" height="35.7204" filterUnits="userSpaceOnUse" color-interpolation-filters="sRGB">
<feFlood flood-opacity="0" result="BackgroundImageFix"/>
<feBlend mode="normal" in="SourceGraphic" in2="BackgroundImageFix" result="shape"/>
<feGaussianBlur stdDeviation="1" result="effect1_foregroundBlur_106_623"/>
</filter>
<filter id="filter21_f_106_623" x="129.193" y="124.733" width="18.7452" height="19.4201" filterUnits="userSpaceOnUse" color-interpolation-filters="sRGB">
<feFlood flood-opacity="0" result="BackgroundImageFix"/>
<feBlend mode="normal" in="SourceGraphic" in2="BackgroundImageFix" result="shape"/>
<feGaussianBlur stdDeviation="1" result="effect1_foregroundBlur_106_623"/>
</filter>
<filter id="filter22_f_106_623" x="70.0949" y="89" width="31.0803" height="63" filterUnits="userSpaceOnUse" color-interpolation-filters="sRGB">
<feFlood flood-opacity="0" result="BackgroundImageFix"/>
<feBlend mode="normal" in="SourceGraphic" in2="BackgroundImageFix" result="shape"/>
<feGaussianBlur stdDeviation="1.5" result="effect1_foregroundBlur_106_623"/>
</filter>
<filter id="filter23_f_106_623" x="159.728" y="82.2764" width="20.8472" height="24.4472" filterUnits="userSpaceOnUse" color-interpolation-filters="sRGB">
<feFlood flood-opacity="0" result="BackgroundImageFix"/>
<feBlend mode="normal" in="SourceGraphic" in2="BackgroundImageFix" result="shape"/>
<feGaussianBlur stdDeviation="1" result="effect1_foregroundBlur_106_623"/>
</filter>
<linearGradient id="paint0_linear_106_623" x1="135.35" y1="189" x2="131.85" y2="33.5" gradientUnits="userSpaceOnUse">
<stop stop-color="#95D254"/>
<stop offset="1" stop-color="#A5DC69"/>
</linearGradient>
<radialGradient id="paint1_radial_106_623" cx="0" cy="0" r="1" gradientUnits="userSpaceOnUse" gradientTransform="translate(135.763 130) rotate(89.6174) scale(88.002 74.5423)">
<stop stop-color="#2C6325"/>
<stop offset="1" stop-color="#97D257"/>
</radialGradient>
<radialGradient id="paint2_radial_106_623" cx="0" cy="0" r="1" gradientUnits="userSpaceOnUse" gradientTransform="translate(128.85 136.4) rotate(90) scale(72.2046 65)">
<stop stop-color="#2C6325"/>
<stop offset="1" stop-color="#4A9437"/>
</radialGradient>
<linearGradient id="paint3_linear_106_623" x1="139.35" y1="206.5" x2="107.35" y2="212" gradientUnits="userSpaceOnUse">
<stop stop-color="#4E9D3A"/>
<stop offset="1" stop-color="#96D355"/>
</linearGradient>
<linearGradient id="paint4_linear_106_623" x1="121.35" y1="217.5" x2="124.35" y2="204.5" gradientUnits="userSpaceOnUse">
<stop stop-color="#4E9D3A"/>
<stop offset="1" stop-color="#96D355"/>
</linearGradient>
<linearGradient id="paint5_linear_106_623" x1="220.675" y1="162.5" x2="108.175" y2="60.5" gradientUnits="userSpaceOnUse">
<stop stop-color="#BBD782"/>
<stop offset="1" stop-color="#8FCF47"/>
</linearGradient>
<linearGradient id="paint6_linear_106_623" x1="148.175" y1="203" x2="213.175" y2="161.5" gradientUnits="userSpaceOnUse">
<stop stop-color="#75C548"/>
<stop offset="1" stop-color="#C9E44E"/>
</linearGradient>
<linearGradient id="paint7_linear_106_623" x1="136.175" y1="49.5" x2="199.175" y2="143" gradientUnits="userSpaceOnUse">
<stop offset="0.0136226" stop-color="#8ACC46"/>
<stop offset="1" stop-color="#C9E44E"/>
</linearGradient>
<radialGradient id="paint8_radial_106_623" cx="0" cy="0" r="1" gradientUnits="userSpaceOnUse" gradientTransform="translate(96.6752 114) rotate(90) scale(39.5 27.5)">
<stop offset="0.447917" stop-color="#30A201"/>
<stop offset="1" stop-color="#B7D974"/>
</radialGradient>
<linearGradient id="paint9_linear_106_623" x1="153.175" y1="188.5" x2="189.675" y2="151" gradientUnits="userSpaceOnUse">
<stop stop-color="#A3D84A"/>
<stop offset="1" stop-color="#6AC64C"/>
</linearGradient>
<linearGradient id="paint10_linear_106_623" x1="135.675" y1="79.5" x2="155.175" y2="91.5" gradientUnits="userSpaceOnUse">
<stop stop-color="#63C447"/>
<stop offset="1" stop-color="#8BD046"/>
</linearGradient>
</defs>
</svg>
